<?xml version="1.0" encoding="UTF-8" standalone="no"?>
<!-- Created with Inkscape (http://www.inkscape.org/) -->

<svg
   width="62.311642mm"
   height="38.236mm"
   viewBox="0 0 62.311642 38.236"
   version="1.1"
   id="svg1"
   xml:space="preserve"
   xmlns="http://www.w3.org/2000/svg"
   xmlns:svg="http://www.w3.org/2000/svg"><defs
     id="defs1"><rect
       x="180.06784"
       y="398.61792"
       width="503.17343"
       height="352.87488"
       id="rect3" /></defs><g
     id="layer3"
     transform="translate(-49.336653,-67.505932)"><text
       xml:space="preserve"
       transform="matrix(0.40055645,0,0,0.26458333,-23.47981,-19.979302)"
       id="text3"
       style="font-size:74.6667px;text-align:start;writing-mode:lr-tb;direction:ltr;white-space:pre;shape-inside:url(#rect3);display:inline;fill:#fcf5ce;fill-opacity:1;stroke:#fcf5ce;stroke-width:1.92292;stroke-dasharray:none;stroke-opacity:1"><tspan
         x="180.06836"
         y="466.55457"
         id="tspan2"><tspan
           style="font-size:37.3333px;font-family:'Ink Free';-inkscape-font-specification:'Ink Free'"
           id="tspan1">Matchups</tspan></tspan></text></g><g
     id="layer2"
     transform="translate(-49.336653,-67.505932)"><path
       id="path1-1-2"
       style="fill:#e48a00;stroke-width:0.116;stroke-dasharray:none"
       d="m 97.420471,67.512159 c -0.70015,-0.0194 -1.38555,0.006 -1.99161,0.0842 -0.70976,0.0921 -2.17089,0.39996 -2.24379,0.47284 -0.008,0.008 0.12012,0.0144 0.28422,0.0145 3.23676,0.001 7.410629,2.28391 10.645869,5.82187 0.42017,0.4595 0.36765,0.43493 0.49867,0.22892 1.01028,-1.58866 0.44362,-2.99248 -2.22415,-5.50974 -0.63404,-0.59826 -2.868776,-1.05456 -4.969209,-1.11259 z m -4.28087,1.80093 c -1.12144,0.0214 -2.27951,0.23929 -3.49695,0.64595 -0.72739,0.24297 -0.75142,0.25514 -1.13533,0.56379 -1.4021,1.12722 -2.5098,2.41748 -3.36517,3.93206 h 2.15078 l 0.23719,1.59422 c 1.19161,-0.25338 2.53035,-0.38198 4.04626,-0.38086 1.1365,8.3e-4 1.4827,0.015 3.69487,0.14987 3.55557,0.21674 4.895069,0.19285 6.416659,-0.11421 0.66267,-0.13373 1.67838,-0.45219 1.65468,-0.51883 -0.004,-0.0126 -0.21405,-0.25172 -0.46612,-0.53123 -3.335856,-3.69906 -6.372559,-5.40508 -9.736869,-5.34076 z m 12.113469,0.7891 c 0.002,0.0145 0.0479,0.0739 0.13953,0.19275 1.41879,1.84202 1.50315,3.53882 0.25321,5.09013 -0.1476,0.18324 -0.14782,0.18338 -0.0481,0.31522 0.1726,0.2281 0.76873,1.11963 0.98806,1.47795 0.11573,0.18905 0.22616,0.36147 0.24546,0.38292 0.0694,0.0771 1.06538,-0.97449 1.40766,-1.48621 0.30441,-0.45509 0.55932,-1.0728 0.69505,-1.68517 0.13937,-0.62873 -1.79352,-2.91534 -3.55947,-4.21111 -0.0828,-0.0607 -0.12344,-0.091 -0.12144,-0.0765 z m 4.63434,5.80739 c -0.0169,0.0125 -0.0368,0.0695 -0.077,0.18294 -0.25716,0.72539 -0.67995,1.31276 -1.81694,2.52594 -0.35639,0.38027 -0.35621,0.3801 -0.1111,0.8878 0.1348,0.27924 0.31811,0.6816 0.40721,0.89401 0.0891,0.21241 0.16443,0.3886 0.16743,0.3917 0.003,0.003 0.0565,-0.033 0.11937,-0.0801 0.66054,-0.49499 1.50349,-0.56967 2.21589,-0.19637 0.21204,0.11113 0.21195,0.11114 0.19275,-0.1664 -0.0999,-1.43879 -0.49677,-3.10279 -1.03973,-4.35735 -0.0273,-0.0633 -0.041,-0.0947 -0.0579,-0.0822 z m -5.39088,0.69712 c -0.0157,-0.01 -0.15497,0.0423 -0.30903,0.11575 -1.35047,0.64412 -2.67479,0.88559 -4.848799,0.88419 -1.19749,-8e-4 -1.46134,-0.0143 -3.437,-0.1726 -3.35912,-0.26911 -4.37533,-0.31163 -5.72885,-0.2403 -0.87459,0.0461 -1.67572,0.15267 -2.42569,0.31161 l 1.4733,9.89707 c 3.19937,-0.99787 7.13225,-2.91812 11.536239,-5.65495 2.15695,-1.34041 4.99667,-3.26868 4.95887,-3.36724 -0.0479,-0.12488 -1.15304,-1.73278 -1.21904,-1.77353 z m 2.04742,3.19929 c -0.007,-0.006 -0.22238,0.1412 -0.47904,0.32866 -6.411816,4.68318 -12.268959,7.83236 -16.588139,8.98911 l 0.61547,4.1367 c 1.13901,0.67407 2.37751,1.18987 3.67626,1.51929 0.68205,0.17299 0.63301,0.17412 1.21646,-0.0382 4.10551,-1.49462 6.001619,-3.07432 8.271329,-6.89209 1.4015,-2.35739 1.53519,-2.57546 2.06189,-3.35276 0.55311,-0.81629 1.142,-1.57214 2.0097,-2.58072 0.0975,-0.11348 0.0977,-0.11366 0.003,-0.36329 -0.17659,-0.46667 -0.72543,-1.68454 -0.78703,-1.74666 z m 3.71502,1.92546 c -0.41774,-0.009 -0.92231,0.16288 -1.24592,0.52297 -0.0481,0.0535 -0.0458,0.0727 0.0486,0.45423 0.46434,1.87709 0.47109,4.06224 0.0171,5.62446 -0.0502,0.17282 -0.0149,0.12593 0.20825,-0.27698 0.96243,-1.73755 1.57841,-3.82629 1.69809,-5.75779 0.0227,-0.36682 -0.30831,-0.55759 -0.72605,-0.56689 z m -2.41794,1.60559 c -0.0258,0.003 -0.0614,0.0584 -0.12403,0.13642 -0.84547,1.0531 -1.41573,1.93375 -2.68562,4.14549 -0.86681,1.50969 -1.13328,1.95444 -1.56115,2.60656 -1.69687,2.58616 -3.45961,4.02511 -5.950539,4.85758 -0.37237,0.1244 -0.372,0.12434 -0.1142,0.12144 3.476139,-0.0412 6.838209,-1.44799 9.453679,-3.95531 0.46906,-0.44966 0.46868,-0.44845 0.65578,-1.1374 0.67045,-2.46879 0.80513,-4.29546 0.4594,-6.23063 -0.0736,-0.41198 -0.0903,-0.54975 -0.13332,-0.54415 z" /></g><g
     id="layer1"
     transform="translate(-49.336653,-67.505932)"><path
       style="font-weight:bold;font-size:96px;font-family:Impact;-inkscape-font-specification:'Impact Bold';white-space:pre;fill:#e5e5e5;fill-opacity:1"
       d="m 232.42383,284.50624 v 75.89062 h -17.29688 l -10.26562,-34.5 v 34.5 h -16.5 v -75.89062 h 16.5 l 11.0625,34.17187 v -34.17187 z m 7.92187,0 h 19.6875 q 9.32813,0 14.10938,1.45312 4.82812,1.45313 7.78125,5.90625 2.95312,4.40625 2.95312,14.25 0,6.65625 -2.10937,9.28125 -2.0625,2.625 -8.20313,4.03125 6.84375,1.54688 9.28125,5.15625 2.4375,3.5625 2.4375,10.96875 v 7.03125 q 0,7.6875 -1.78125,11.39063 -1.73437,3.70312 -5.57812,5.0625 -3.84375,1.35937 -15.75,1.35937 H 240.3457 Z m 19.73438,12.98437 v 16.875 q 1.26562,-0.0469 1.96875,-0.0469 2.90625,0 3.70312,-1.40625 0.79688,-1.45313 0.79688,-8.20313 0,-3.5625 -0.65625,-4.96875 -0.65625,-1.45312 -1.73438,-1.82812 -1.03125,-0.375 -4.07812,-0.42188 z m 0,28.6875 v 21.23438 q 4.17187,-0.14063 5.29687,-1.3125 1.17188,-1.17188 1.17188,-5.76563 v -7.07812 q 0,-4.875 -1.03125,-5.90625 -1.03125,-1.03125 -5.4375,-1.17188 z m 67.35937,-41.67187 11.29688,75.89062 H 318.5332 l -0.98437,-13.64062 h -7.07813 l -1.17187,13.64062 h -20.4375 l 10.03125,-75.89062 z m -10.45312,48.79687 q -1.5,-12.89062 -3,-31.82812 -3,21.75 -3.75,31.82812 z"
       id="text1"
       transform="scale(0.26458333)"
       aria-label="NBA" /></g></svg>
